<svg width="49" height="48" viewBox="0 0 49 48" fill="none" xmlns="http://www.w3.org/2000/svg">
<rect x="1" y="0.5" width="47" height="47" rx="23.5" stroke="#E1E0F1"/>
<path fill-rule="evenodd" clip-rule="evenodd" d="M14.5 24.0558C14.5 29.0275 18.1108 33.1617 22.8333 34V26.7775H20.3333V24H22.8333V21.7775C22.8333 19.2775 24.4442 17.8892 26.7225 17.8892C27.4442 17.8892 28.2225 18 28.9442 18.1108V20.6667H27.6667C26.4442 20.6667 26.1667 21.2775 26.1667 22.0558V24H28.8333L28.3892 26.7775H26.1667V34C30.8892 33.1617 34.5 29.0283 34.5 24.0558C34.5 18.525 30 14 24.5 14C19 14 14.5 18.525 14.5 24.0558Z" fill="#8885AC"/>
</svg>
