<svg width="335" height="49" viewBox="0 0 335 49" fill="none" xmlns="http://www.w3.org/2000/svg">
<rect width="335" height="49" rx="24.5" fill="white"/>
<path fill-rule="evenodd" clip-rule="evenodd" d="M17.5 24.5419C17.5 28.2706 20.2081 31.3712 23.75 32V26.5831H21.875V24.5H23.75V22.8331C23.75 20.9581 24.9581 19.9169 26.6669 19.9169C27.2081 19.9169 27.7919 20 28.3331 20.0831V22H27.375C26.4581 22 26.25 22.4581 26.25 23.0419V24.5H28.25L27.9169 26.5831H26.25V32C29.7919 31.3712 32.5 28.2713 32.5 24.5419C32.5 20.3938 29.125 17 25 17C20.875 17 17.5 20.3938 17.5 24.5419Z" fill="#040504"/>
<path d="M88.3308 23.2536H86.4714C86.4184 22.9486 86.3206 22.6785 86.1781 22.4432C86.0356 22.2045 85.8583 22.0024 85.6461 21.8366C85.434 21.6709 85.1921 21.5466 84.9203 21.4638C84.6518 21.3776 84.3618 21.3345 84.0502 21.3345C83.4967 21.3345 83.0062 21.4737 82.5787 21.7521C82.1511 22.0272 81.8163 22.4316 81.5744 22.9652C81.3324 23.4955 81.2115 24.1435 81.2115 24.9091C81.2115 25.688 81.3324 26.3442 81.5744 26.8778C81.8197 27.4081 82.1544 27.8092 82.5787 28.081C83.0062 28.3494 83.4951 28.4837 84.0453 28.4837C84.3502 28.4837 84.6352 28.4439 84.9004 28.3643C85.1689 28.2815 85.4092 28.1605 85.6213 28.0014C85.8367 27.8423 86.0173 27.6468 86.1632 27.4148C86.3123 27.1828 86.4151 26.9176 86.4714 26.6193L88.3308 26.6293C88.2612 27.1132 88.1104 27.5672 87.8784 27.9915C87.6497 28.4157 87.3497 28.7902 86.9785 29.1151C86.6073 29.4366 86.1731 29.6884 85.676 29.8707C85.1788 30.0497 84.627 30.1392 84.0204 30.1392C83.1255 30.1392 82.3268 29.9321 81.6241 29.5178C80.9215 29.1035 80.368 28.5052 79.9636 27.723C79.5592 26.9408 79.3571 26.0028 79.3571 24.9091C79.3571 23.812 79.5609 22.8741 79.9686 22.0952C80.3762 21.313 80.9314 20.7147 81.6341 20.3004C82.3367 19.8861 83.1322 19.679 84.0204 19.679C84.5872 19.679 85.1142 19.7585 85.6014 19.9176C86.0886 20.0767 86.5228 20.3104 86.9039 20.6186C87.2851 20.9235 87.5983 21.2981 87.8436 21.7422C88.0922 22.183 88.2546 22.6868 88.3308 23.2536ZM93.5213 30.1491C92.7756 30.1491 92.1293 29.9851 91.5824 29.657C91.0355 29.3288 90.6113 28.8698 90.3097 28.2798C90.0114 27.6899 89.8622 27.0005 89.8622 26.2116C89.8622 25.4228 90.0114 24.7318 90.3097 24.1385C90.6113 23.5452 91.0355 23.0845 91.5824 22.7564C92.1293 22.4283 92.7756 22.2642 93.5213 22.2642C94.267 22.2642 94.9134 22.4283 95.4602 22.7564C96.0071 23.0845 96.4297 23.5452 96.728 24.1385C97.0296 24.7318 97.1804 25.4228 97.1804 26.2116C97.1804 27.0005 97.0296 27.6899 96.728 28.2798C96.4297 28.8698 96.0071 29.3288 95.4602 29.657C94.9134 29.9851 94.267 30.1491 93.5213 30.1491ZM93.5312 28.7074C93.9356 28.7074 94.2737 28.5964 94.5455 28.3743C94.8172 28.1489 95.0194 27.8473 95.152 27.4695C95.2879 27.0916 95.3558 26.6707 95.3558 26.2067C95.3558 25.7393 95.2879 25.3168 95.152 24.9389C95.0194 24.5578 94.8172 24.2545 94.5455 24.0291C94.2737 23.8037 93.9356 23.6911 93.5312 23.6911C93.117 23.6911 92.7723 23.8037 92.4972 24.0291C92.2254 24.2545 92.0215 24.5578 91.8857 24.9389C91.7531 25.3168 91.6868 25.7393 91.6868 26.2067C91.6868 26.6707 91.7531 27.0916 91.8857 27.4695C92.0215 27.8473 92.2254 28.1489 92.4972 28.3743C92.7723 28.5964 93.117 28.7074 93.5312 28.7074ZM100.758 25.5256V30H98.9579V22.3636H100.678V23.6612H100.768C100.943 23.2337 101.223 22.8939 101.608 22.642C101.996 22.3902 102.474 22.2642 103.045 22.2642C103.572 22.2642 104.031 22.3769 104.422 22.6023C104.816 22.8277 105.121 23.1541 105.336 23.5817C105.555 24.0092 105.663 24.5279 105.66 25.1378V30H103.86V25.4162C103.86 24.9058 103.727 24.5064 103.462 24.218C103.2 23.9297 102.837 23.7855 102.373 23.7855C102.059 23.7855 101.778 23.8551 101.533 23.9943C101.291 24.1302 101.101 24.3274 100.961 24.5859C100.826 24.8445 100.758 25.1577 100.758 25.5256ZM111.552 22.3636V23.7557H107.162V22.3636H111.552ZM108.246 20.5341H110.046V27.7031C110.046 27.9451 110.082 28.1307 110.155 28.2599C110.232 28.3859 110.331 28.4721 110.454 28.5185C110.576 28.5649 110.712 28.5881 110.861 28.5881C110.974 28.5881 111.077 28.5798 111.17 28.5632C111.266 28.5466 111.339 28.5317 111.388 28.5185L111.692 29.9254C111.595 29.9586 111.458 29.995 111.279 30.0348C111.103 30.0746 110.888 30.0978 110.633 30.1044C110.182 30.1177 109.776 30.0497 109.415 29.9006C109.053 29.7481 108.767 29.5128 108.555 29.1946C108.346 28.8764 108.243 28.4787 108.246 28.0014V20.5341ZM113.308 30V22.3636H115.107V30H113.308ZM114.212 21.2798C113.927 21.2798 113.682 21.1854 113.477 20.9964C113.271 20.8042 113.168 20.5739 113.168 20.3054C113.168 20.0336 113.271 19.8033 113.477 19.6143C113.682 19.4221 113.927 19.326 114.212 19.326C114.501 19.326 114.746 19.4221 114.948 19.6143C115.154 19.8033 115.256 20.0336 115.256 20.3054C115.256 20.5739 115.154 20.8042 114.948 20.9964C114.746 21.1854 114.501 21.2798 114.212 21.2798ZM119.008 25.5256V30H117.208V22.3636H118.928V23.6612H119.018C119.193 23.2337 119.473 22.8939 119.858 22.642C120.246 22.3902 120.724 22.2642 121.295 22.2642C121.822 22.2642 122.281 22.3769 122.672 22.6023C123.066 22.8277 123.371 23.1541 123.586 23.5817C123.805 24.0092 123.913 24.5279 123.91 25.1378V30H122.11V25.4162C122.11 24.9058 121.977 24.5064 121.712 24.218C121.45 23.9297 121.087 23.7855 120.623 23.7855C120.309 23.7855 120.028 23.8551 119.783 23.9943C119.541 24.1302 119.351 24.3274 119.211 24.5859C119.076 24.8445 119.008 25.1577 119.008 25.5256ZM130.856 26.7884V22.3636H132.656V30H130.911V28.6428H130.831C130.659 29.0703 130.376 29.42 129.981 29.6918C129.59 29.9635 129.108 30.0994 128.535 30.0994C128.034 30.0994 127.592 29.9884 127.207 29.7663C126.826 29.541 126.528 29.2145 126.312 28.7869C126.097 28.3561 125.989 27.8357 125.989 27.2259V22.3636H127.789V26.9474C127.789 27.4313 127.921 27.8158 128.187 28.1009C128.452 28.3859 128.8 28.5284 129.231 28.5284C129.496 28.5284 129.753 28.4638 130.001 28.3345C130.25 28.2053 130.454 28.013 130.613 27.7578C130.775 27.4993 130.856 27.1761 130.856 26.7884ZM138.137 30.1491C137.372 30.1491 136.711 29.9901 136.154 29.6719C135.6 29.3504 135.174 28.8963 134.876 28.3097C134.578 27.7197 134.429 27.0253 134.429 26.2266C134.429 25.4411 134.578 24.7517 134.876 24.1584C135.178 23.5618 135.599 23.0978 136.139 22.7663C136.679 22.4316 137.314 22.2642 138.043 22.2642C138.514 22.2642 138.958 22.3404 139.375 22.4929C139.796 22.642 140.167 22.8741 140.489 23.1889C140.814 23.5038 141.069 23.9048 141.255 24.392C141.44 24.8759 141.533 25.4527 141.533 26.1222V26.674H135.274V25.4609H139.808C139.805 25.1162 139.73 24.8097 139.584 24.5412C139.438 24.2694 139.234 24.0556 138.973 23.8999C138.714 23.7441 138.413 23.6662 138.068 23.6662C137.7 23.6662 137.377 23.7557 137.098 23.9347C136.82 24.1103 136.603 24.3423 136.447 24.6307C136.295 24.9157 136.217 25.2289 136.213 25.5703V26.6293C136.213 27.0734 136.295 27.4545 136.457 27.7727C136.619 28.0876 136.846 28.3295 137.138 28.4986C137.43 28.6643 137.771 28.7472 138.162 28.7472C138.424 28.7472 138.661 28.7107 138.873 28.6378C139.085 28.5616 139.269 28.4505 139.425 28.3047C139.581 28.1589 139.699 27.9782 139.778 27.7628L141.458 27.9517C141.352 28.3958 141.15 28.7836 140.852 29.1151C140.557 29.4432 140.179 29.6984 139.718 29.8807C139.258 30.0597 138.731 30.1491 138.137 30.1491ZM148.604 30L146.447 22.3636H148.281L149.623 27.733H149.693L151.065 22.3636H152.88L154.252 27.7031H154.327L155.649 22.3636H157.488L155.326 30H153.452L152.02 24.8395H151.915L150.483 30H148.604ZM158.995 30V22.3636H160.795V30H158.995ZM159.9 21.2798C159.615 21.2798 159.37 21.1854 159.164 20.9964C158.959 20.8042 158.856 20.5739 158.856 20.3054C158.856 20.0336 158.959 19.8033 159.164 19.6143C159.37 19.4221 159.615 19.326 159.9 19.326C160.188 19.326 160.433 19.4221 160.636 19.6143C160.841 19.8033 160.944 20.0336 160.944 20.3054C160.944 20.5739 160.841 20.8042 160.636 20.9964C160.433 21.1854 160.188 21.2798 159.9 21.2798ZM166.709 22.3636V23.7557H162.319V22.3636H166.709ZM163.403 20.5341H165.202V27.7031C165.202 27.9451 165.239 28.1307 165.312 28.2599C165.388 28.3859 165.487 28.4721 165.61 28.5185C165.733 28.5649 165.868 28.5881 166.018 28.5881C166.13 28.5881 166.233 28.5798 166.326 28.5632C166.422 28.5466 166.495 28.5317 166.545 28.5185L166.848 29.9254C166.752 29.9586 166.614 29.995 166.435 30.0348C166.26 30.0746 166.044 30.0978 165.789 30.1044C165.338 30.1177 164.932 30.0497 164.571 29.9006C164.21 29.7481 163.923 29.5128 163.711 29.1946C163.502 28.8764 163.399 28.4787 163.403 28.0014V20.5341ZM170.428 25.5256V30H168.628V19.8182H170.388V23.6612H170.477C170.656 23.2304 170.933 22.8906 171.308 22.642C171.685 22.3902 172.166 22.2642 172.749 22.2642C173.28 22.2642 173.742 22.3752 174.136 22.5973C174.531 22.8194 174.836 23.1442 175.051 23.5717C175.27 23.9993 175.379 24.5213 175.379 25.1378V30H173.58V25.4162C173.58 24.9025 173.447 24.5031 173.182 24.218C172.92 23.9297 172.552 23.7855 172.078 23.7855C171.76 23.7855 171.475 23.8551 171.223 23.9943C170.974 24.1302 170.779 24.3274 170.636 24.5859C170.497 24.8445 170.428 25.1577 170.428 25.5256ZM181.266 30V19.8182H187.789V21.3643H183.11V24.1286H187.341V25.6747H183.11V30H181.266ZM191.769 30.1541C191.285 30.1541 190.849 30.0679 190.461 29.8956C190.077 29.7199 189.772 29.4614 189.546 29.12C189.324 28.7786 189.213 28.3577 189.213 27.8572C189.213 27.4264 189.293 27.0701 189.452 26.7884C189.611 26.5066 189.828 26.2812 190.103 26.1122C190.378 25.9432 190.688 25.8156 191.033 25.7294C191.381 25.6399 191.74 25.5753 192.112 25.5355C192.559 25.4891 192.922 25.4477 193.2 25.4112C193.479 25.3714 193.681 25.3118 193.807 25.2322C193.936 25.1494 194.001 25.0218 194.001 24.8494V24.8196C194.001 24.4451 193.89 24.1551 193.668 23.9496C193.446 23.7441 193.126 23.6413 192.708 23.6413C192.267 23.6413 191.918 23.7375 191.659 23.9297C191.404 24.1219 191.232 24.349 191.142 24.6108L189.462 24.3722C189.594 23.9081 189.813 23.5204 190.118 23.2088C190.423 22.8939 190.796 22.6586 191.237 22.5028C191.677 22.3438 192.165 22.2642 192.698 22.2642C193.066 22.2642 193.432 22.3073 193.797 22.3935C194.162 22.4796 194.495 22.6222 194.796 22.821C195.098 23.0166 195.34 23.2834 195.522 23.6214C195.708 23.9595 195.801 24.3821 195.801 24.8892V30H194.07V28.951H194.011C193.901 29.1631 193.747 29.362 193.548 29.5476C193.353 29.7299 193.106 29.8774 192.808 29.9901C192.513 30.0994 192.166 30.1541 191.769 30.1541ZM192.236 28.8317C192.597 28.8317 192.91 28.7604 193.176 28.6179C193.441 28.4721 193.645 28.2798 193.787 28.0412C193.933 27.8026 194.006 27.5424 194.006 27.2607V26.3608C193.95 26.4072 193.853 26.4503 193.718 26.4901C193.585 26.5298 193.436 26.5646 193.27 26.5945C193.104 26.6243 192.94 26.6508 192.778 26.674C192.615 26.6972 192.475 26.7171 192.355 26.7337C192.087 26.7701 191.847 26.8298 191.634 26.9126C191.422 26.9955 191.255 27.1115 191.132 27.2607C191.01 27.4065 190.948 27.5954 190.948 27.8274C190.948 28.1589 191.069 28.4091 191.311 28.5781C191.553 28.7472 191.861 28.8317 192.236 28.8317ZM201.191 30.1491C200.429 30.1491 199.774 29.9818 199.227 29.647C198.684 29.3123 198.265 28.8499 197.97 28.2599C197.678 27.6667 197.532 26.9839 197.532 26.2116C197.532 25.4361 197.681 24.7517 197.98 24.1584C198.278 23.5618 198.699 23.0978 199.242 22.7663C199.789 22.4316 200.436 22.2642 201.181 22.2642C201.801 22.2642 202.35 22.3786 202.827 22.6072C203.307 22.8326 203.69 23.1525 203.975 23.5668C204.26 23.9777 204.423 24.4583 204.463 25.0085H202.742C202.673 24.6406 202.507 24.334 202.245 24.0888C201.987 23.8402 201.64 23.7159 201.206 23.7159C200.838 23.7159 200.515 23.8153 200.237 24.0142C199.958 24.2098 199.741 24.4915 199.585 24.8594C199.433 25.2273 199.357 25.6681 199.357 26.1818C199.357 26.7022 199.433 27.1496 199.585 27.5241C199.738 27.8954 199.952 28.1821 200.227 28.3842C200.505 28.5831 200.832 28.6825 201.206 28.6825C201.471 28.6825 201.708 28.6328 201.917 28.5334C202.129 28.4306 202.307 28.2831 202.449 28.0909C202.592 27.8987 202.689 27.665 202.742 27.3899H204.463C204.419 27.9302 204.26 28.4091 203.985 28.8267C203.71 29.241 203.336 29.5658 202.862 29.8011C202.388 30.0331 201.831 30.1491 201.191 30.1491ZM209.571 30.1491C208.805 30.1491 208.144 29.9901 207.587 29.6719C207.034 29.3504 206.608 28.8963 206.31 28.3097C206.011 27.7197 205.862 27.0253 205.862 26.2266C205.862 25.4411 206.011 24.7517 206.31 24.1584C206.611 23.5618 207.032 23.0978 207.572 22.7663C208.113 22.4316 208.747 22.2642 209.477 22.2642C209.947 22.2642 210.391 22.3404 210.809 22.4929C211.23 22.642 211.601 22.8741 211.923 23.1889C212.247 23.5038 212.503 23.9048 212.688 24.392C212.874 24.8759 212.967 25.4527 212.967 26.1222V26.674H206.707V25.4609H211.241C211.238 25.1162 211.164 24.8097 211.018 24.5412C210.872 24.2694 210.668 24.0556 210.406 23.8999C210.148 23.7441 209.846 23.6662 209.501 23.6662C209.134 23.6662 208.81 23.7557 208.532 23.9347C208.254 24.1103 208.036 24.3423 207.881 24.6307C207.728 24.9157 207.65 25.2289 207.647 25.5703V26.6293C207.647 27.0734 207.728 27.4545 207.891 27.7727C208.053 28.0876 208.28 28.3295 208.572 28.4986C208.863 28.6643 209.205 28.7472 209.596 28.7472C209.858 28.7472 210.095 28.7107 210.307 28.6378C210.519 28.5616 210.703 28.4505 210.859 28.3047C211.014 28.1589 211.132 27.9782 211.212 27.7628L212.892 27.9517C212.786 28.3958 212.584 28.7836 212.286 29.1151C211.991 29.4432 211.613 29.6984 211.152 29.8807C210.691 30.0597 210.164 30.1491 209.571 30.1491ZM214.819 30V19.8182H216.618V23.6264H216.693C216.786 23.4408 216.917 23.2436 217.086 23.0348C217.255 22.8227 217.483 22.642 217.772 22.4929C218.06 22.3404 218.428 22.2642 218.876 22.2642C219.465 22.2642 219.997 22.415 220.471 22.7166C220.949 23.0149 221.327 23.4574 221.605 24.044C221.887 24.6274 222.028 25.3433 222.028 26.1918C222.028 27.0303 221.89 27.7429 221.615 28.3295C221.34 28.9162 220.965 29.3636 220.491 29.6719C220.017 29.9801 219.48 30.1342 218.881 30.1342C218.443 30.1342 218.08 30.0613 217.792 29.9155C217.503 29.7696 217.271 29.594 217.096 29.3885C216.923 29.1797 216.789 28.9825 216.693 28.7969H216.589V30H214.819ZM216.584 26.1818C216.584 26.6757 216.653 27.1082 216.792 27.4794C216.935 27.8506 217.139 28.1406 217.404 28.3494C217.672 28.5549 217.997 28.6577 218.378 28.6577C218.776 28.6577 219.109 28.5516 219.378 28.3395C219.646 28.1241 219.848 27.8307 219.984 27.4595C220.123 27.085 220.193 26.6591 220.193 26.1818C220.193 25.7079 220.125 25.2869 219.989 24.919C219.853 24.5511 219.651 24.2628 219.383 24.054C219.114 23.8452 218.779 23.7408 218.378 23.7408C217.994 23.7408 217.667 23.8419 217.399 24.044C217.131 24.2462 216.927 24.5296 216.787 24.8942C216.652 25.2588 216.584 25.688 216.584 26.1818ZM227.138 30.1491C226.393 30.1491 225.746 29.9851 225.2 29.657C224.653 29.3288 224.228 28.8698 223.927 28.2798C223.629 27.6899 223.479 27.0005 223.479 26.2116C223.479 25.4228 223.629 24.7318 223.927 24.1385C224.228 23.5452 224.653 23.0845 225.2 22.7564C225.746 22.4283 226.393 22.2642 227.138 22.2642C227.884 22.2642 228.531 22.4283 229.077 22.7564C229.624 23.0845 230.047 23.5452 230.345 24.1385C230.647 24.7318 230.798 25.4228 230.798 26.2116C230.798 27.0005 230.647 27.6899 230.345 28.2798C230.047 28.8698 229.624 29.3288 229.077 29.657C228.531 29.9851 227.884 30.1491 227.138 30.1491ZM227.148 28.7074C227.553 28.7074 227.891 28.5964 228.163 28.3743C228.434 28.1489 228.637 27.8473 228.769 27.4695C228.905 27.0916 228.973 26.6707 228.973 26.2067C228.973 25.7393 228.905 25.3168 228.769 24.9389C228.637 24.5578 228.434 24.2545 228.163 24.0291C227.891 23.8037 227.553 23.6911 227.148 23.6911C226.734 23.6911 226.389 23.8037 226.114 24.0291C225.843 24.2545 225.639 24.5578 225.503 24.9389C225.37 25.3168 225.304 25.7393 225.304 26.2067C225.304 26.6707 225.37 27.0916 225.503 27.4695C225.639 27.8473 225.843 28.1489 226.114 28.3743C226.389 28.5964 226.734 28.7074 227.148 28.7074ZM235.906 30.1491C235.16 30.1491 234.514 29.9851 233.967 29.657C233.42 29.3288 232.996 28.8698 232.694 28.2798C232.396 27.6899 232.247 27.0005 232.247 26.2116C232.247 25.4228 232.396 24.7318 232.694 24.1385C232.996 23.5452 233.42 23.0845 233.967 22.7564C234.514 22.4283 235.16 22.2642 235.906 22.2642C236.652 22.2642 237.298 22.4283 237.845 22.7564C238.392 23.0845 238.814 23.5452 239.113 24.1385C239.414 24.7318 239.565 25.4228 239.565 26.2116C239.565 27.0005 239.414 27.6899 239.113 28.2798C238.814 28.8698 238.392 29.3288 237.845 29.657C237.298 29.9851 236.652 30.1491 235.906 30.1491ZM235.916 28.7074C236.32 28.7074 236.658 28.5964 236.93 28.3743C237.202 28.1489 237.404 27.8473 237.537 27.4695C237.673 27.0916 237.741 26.6707 237.741 26.2067C237.741 25.7393 237.673 25.3168 237.537 24.9389C237.404 24.5578 237.202 24.2545 236.93 24.0291C236.658 23.8037 236.32 23.6911 235.916 23.6911C235.502 23.6911 235.157 23.8037 234.882 24.0291C234.61 24.2545 234.406 24.5578 234.27 24.9389C234.138 25.3168 234.072 25.7393 234.072 26.2067C234.072 26.6707 234.138 27.0916 234.27 27.4695C234.406 27.8473 234.61 28.1489 234.882 28.3743C235.157 28.5964 235.502 28.7074 235.916 28.7074ZM242.983 27.6037L242.978 25.4311H243.267L246.011 22.3636H248.114L244.738 26.1222H244.365L242.983 27.6037ZM241.343 30V19.8182H243.142V30H241.343ZM246.135 30L243.65 26.5249L244.863 25.2571L248.288 30H246.135Z" fill="#15104D"/>
</svg>
