<svg width="49" height="48" viewBox="0 0 49 48" fill="none" xmlns="http://www.w3.org/2000/svg">
<rect x="1" y="0.5" width="47" height="47" rx="23.5" stroke="#E1E0F1"/>
<path d="M33.1452 22.3123C33.2577 22.9148 33.3189 23.5447 33.3189 24.2021C33.3189 29.3439 29.8776 33 24.6801 33C23.4981 33.0004 22.3276 32.7678 21.2355 32.3157C20.1434 31.8635 19.1511 31.2006 18.3153 30.3648C17.4795 29.529 16.8166 28.5367 16.3644 27.4446C15.9122 26.3525 15.6797 25.182 15.6801 24C15.6797 22.818 15.9122 21.6475 16.3644 20.5554C16.8166 19.4633 17.4795 18.471 18.3153 17.6352C19.1511 16.7994 20.1434 16.1365 21.2355 15.6844C22.3276 15.2322 23.4981 14.9996 24.6801 15C27.1102 15 29.1408 15.8941 30.6987 17.346L28.1616 19.8831V19.8767C27.2171 18.977 26.0185 18.5153 24.6801 18.5153C21.7105 18.5153 19.2969 21.0241 19.2969 23.9945C19.2969 26.964 21.7105 29.4783 24.6801 29.4783C27.3744 29.4783 29.2084 27.9377 29.5851 25.8221H24.6801V22.3123H33.1461H33.1452Z" fill="#8885AC"/>
</svg>
