<svg width="335" height="49" viewBox="0 0 335 49" fill="none" xmlns="http://www.w3.org/2000/svg">
<rect width="335" height="49" rx="24.5" fill="white"/>
<path d="M31.4839 23.2342C31.5683 23.6861 31.6142 24.1585 31.6142 24.6515C31.6142 28.5079 29.0333 31.25 25.1351 31.25C24.2486 31.2503 23.3707 31.0759 22.5516 30.7367C21.7326 30.3976 20.9883 29.9004 20.3615 29.2736C19.7346 28.6467 19.2375 27.9025 18.8983 27.0834C18.5592 26.2644 18.3848 25.3865 18.3851 24.5C18.3848 23.6135 18.5592 22.7356 18.8983 21.9166C19.2375 21.0975 19.7346 20.3533 20.3615 19.7264C20.9883 19.0996 21.7326 18.6024 22.5516 18.2633C23.3707 17.9241 24.2486 17.7497 25.1351 17.75C26.9577 17.75 28.4806 18.4206 29.649 19.5095L27.7462 21.4123V21.4075C27.0379 20.7328 26.1389 20.3865 25.1351 20.3865C22.9079 20.3865 21.0977 22.2681 21.0977 24.4959C21.0977 26.723 22.9079 28.6087 25.1351 28.6087C27.1558 28.6087 28.5313 27.4533 28.8138 25.8666H25.1351V23.2342H31.4846H31.4839Z" fill="#040504"/>
<path d="M97.6179 23.2536H95.7585C95.7055 22.9486 95.6077 22.6785 95.4652 22.4432C95.3227 22.2045 95.1454 22.0024 94.9332 21.8366C94.7211 21.6709 94.4792 21.5466 94.2074 21.4638C93.9389 21.3776 93.6489 21.3345 93.3374 21.3345C92.7839 21.3345 92.2933 21.4737 91.8658 21.7521C91.4382 22.0272 91.1035 22.4316 90.8615 22.9652C90.6196 23.4955 90.4986 24.1435 90.4986 24.9091C90.4986 25.688 90.6196 26.3442 90.8615 26.8778C91.1068 27.4081 91.4415 27.8092 91.8658 28.081C92.2933 28.3494 92.7822 28.4837 93.3324 28.4837C93.6373 28.4837 93.9223 28.4439 94.1875 28.3643C94.456 28.2815 94.6963 28.1605 94.9084 28.0014C95.1238 27.8423 95.3045 27.6468 95.4503 27.4148C95.5994 27.1828 95.7022 26.9176 95.7585 26.6193L97.6179 26.6293C97.5483 27.1132 97.3975 27.5672 97.1655 27.9915C96.9368 28.4157 96.6368 28.7902 96.2656 29.1151C95.8944 29.4366 95.4602 29.6884 94.9631 29.8707C94.4659 30.0497 93.9141 30.1392 93.3075 30.1392C92.4126 30.1392 91.6139 29.9321 90.9112 29.5178C90.2086 29.1035 89.6551 28.5052 89.2507 27.723C88.8464 26.9408 88.6442 26.0028 88.6442 24.9091C88.6442 23.812 88.848 22.8741 89.2557 22.0952C89.6634 21.313 90.2185 20.7147 90.9212 20.3004C91.6238 19.8861 92.4193 19.679 93.3075 19.679C93.8743 19.679 94.4013 19.7585 94.8885 19.9176C95.3757 20.0767 95.8099 20.3104 96.1911 20.6186C96.5722 20.9235 96.8854 21.2981 97.1307 21.7422C97.3793 22.183 97.5417 22.6868 97.6179 23.2536ZM102.808 30.1491C102.063 30.1491 101.416 29.9851 100.869 29.657C100.323 29.3288 99.8984 28.8698 99.5968 28.2798C99.2985 27.6899 99.1493 27.0005 99.1493 26.2116C99.1493 25.4228 99.2985 24.7318 99.5968 24.1385C99.8984 23.5452 100.323 23.0845 100.869 22.7564C101.416 22.4283 102.063 22.2642 102.808 22.2642C103.554 22.2642 104.2 22.4283 104.747 22.7564C105.294 23.0845 105.717 23.5452 106.015 24.1385C106.317 24.7318 106.468 25.4228 106.468 26.2116C106.468 27.0005 106.317 27.6899 106.015 28.2798C105.717 28.8698 105.294 29.3288 104.747 29.657C104.2 29.9851 103.554 30.1491 102.808 30.1491ZM102.818 28.7074C103.223 28.7074 103.561 28.5964 103.833 28.3743C104.104 28.1489 104.307 27.8473 104.439 27.4695C104.575 27.0916 104.643 26.6707 104.643 26.2067C104.643 25.7393 104.575 25.3168 104.439 24.9389C104.307 24.5578 104.104 24.2545 103.833 24.0291C103.561 23.8037 103.223 23.6911 102.818 23.6911C102.404 23.6911 102.059 23.8037 101.784 24.0291C101.512 24.2545 101.309 24.5578 101.173 24.9389C101.04 25.3168 100.974 25.7393 100.974 26.2067C100.974 26.6707 101.04 27.0916 101.173 27.4695C101.309 27.8473 101.512 28.1489 101.784 28.3743C102.059 28.5964 102.404 28.7074 102.818 28.7074ZM110.045 25.5256V30H108.245V22.3636H109.965V23.6612H110.055C110.23 23.2337 110.51 22.8939 110.895 22.642C111.283 22.3902 111.762 22.2642 112.332 22.2642C112.859 22.2642 113.318 22.3769 113.709 22.6023C114.103 22.8277 114.408 23.1541 114.624 23.5817C114.842 24.0092 114.95 24.5279 114.947 25.1378V30H113.147V25.4162C113.147 24.9058 113.014 24.5064 112.749 24.218C112.487 23.9297 112.125 23.7855 111.661 23.7855C111.346 23.7855 111.066 23.8551 110.82 23.9943C110.578 24.1302 110.388 24.3274 110.249 24.5859C110.113 24.8445 110.045 25.1577 110.045 25.5256ZM120.839 22.3636V23.7557H116.45V22.3636H120.839ZM117.533 20.5341H119.333V27.7031C119.333 27.9451 119.37 28.1307 119.442 28.2599C119.519 28.3859 119.618 28.4721 119.741 28.5185C119.863 28.5649 119.999 28.5881 120.148 28.5881C120.261 28.5881 120.364 28.5798 120.457 28.5632C120.553 28.5466 120.626 28.5317 120.675 28.5185L120.979 29.9254C120.883 29.9586 120.745 29.995 120.566 30.0348C120.39 30.0746 120.175 30.0978 119.92 30.1044C119.469 30.1177 119.063 30.0497 118.702 29.9006C118.34 29.7481 118.054 29.5128 117.842 29.1946C117.633 28.8764 117.53 28.4787 117.533 28.0014V20.5341ZM122.595 30V22.3636H124.394V30H122.595ZM123.499 21.2798C123.214 21.2798 122.969 21.1854 122.764 20.9964C122.558 20.8042 122.455 20.5739 122.455 20.3054C122.455 20.0336 122.558 19.8033 122.764 19.6143C122.969 19.4221 123.214 19.326 123.499 19.326C123.788 19.326 124.033 19.4221 124.235 19.6143C124.441 19.8033 124.544 20.0336 124.544 20.3054C124.544 20.5739 124.441 20.8042 124.235 20.9964C124.033 21.1854 123.788 21.2798 123.499 21.2798ZM128.295 25.5256V30H126.495V22.3636H128.215V23.6612H128.305C128.48 23.2337 128.76 22.8939 129.145 22.642C129.533 22.3902 130.012 22.2642 130.582 22.2642C131.109 22.2642 131.568 22.3769 131.959 22.6023C132.353 22.8277 132.658 23.1541 132.874 23.5817C133.092 24.0092 133.2 24.5279 133.197 25.1378V30H131.397V25.4162C131.397 24.9058 131.264 24.5064 130.999 24.218C130.737 23.9297 130.375 23.7855 129.911 23.7855C129.596 23.7855 129.316 23.8551 129.07 23.9943C128.828 24.1302 128.638 24.3274 128.499 24.5859C128.363 24.8445 128.295 25.1577 128.295 25.5256ZM140.143 26.7884V22.3636H141.943V30H140.198V28.6428H140.119C139.946 29.0703 139.663 29.42 139.268 29.6918C138.877 29.9635 138.395 30.0994 137.822 30.0994C137.321 30.0994 136.879 29.9884 136.494 29.7663C136.113 29.541 135.815 29.2145 135.599 28.7869C135.384 28.3561 135.276 27.8357 135.276 27.2259V22.3636H137.076V26.9474C137.076 27.4313 137.209 27.8158 137.474 28.1009C137.739 28.3859 138.087 28.5284 138.518 28.5284C138.783 28.5284 139.04 28.4638 139.288 28.3345C139.537 28.2053 139.741 28.013 139.9 27.7578C140.062 27.4993 140.143 27.1761 140.143 26.7884ZM147.425 30.1491C146.659 30.1491 145.998 29.9901 145.441 29.6719C144.887 29.3504 144.461 28.8963 144.163 28.3097C143.865 27.7197 143.716 27.0253 143.716 26.2266C143.716 25.4411 143.865 24.7517 144.163 24.1584C144.465 23.5618 144.886 23.0978 145.426 22.7663C145.966 22.4316 146.601 22.2642 147.33 22.2642C147.801 22.2642 148.245 22.3404 148.662 22.4929C149.083 22.642 149.455 22.8741 149.776 23.1889C150.101 23.5038 150.356 23.9048 150.542 24.392C150.727 24.8759 150.82 25.4527 150.82 26.1222V26.674H144.561V25.4609H149.095C149.092 25.1162 149.017 24.8097 148.871 24.5412C148.725 24.2694 148.522 24.0556 148.26 23.8999C148.001 23.7441 147.7 23.6662 147.355 23.6662C146.987 23.6662 146.664 23.7557 146.385 23.9347C146.107 24.1103 145.89 24.3423 145.734 24.6307C145.582 24.9157 145.504 25.2289 145.501 25.5703V26.6293C145.501 27.0734 145.582 27.4545 145.744 27.7727C145.907 28.0876 146.134 28.3295 146.425 28.4986C146.717 28.6643 147.058 28.7472 147.449 28.7472C147.711 28.7472 147.948 28.7107 148.16 28.6378C148.372 28.5616 148.556 28.4505 148.712 28.3047C148.868 28.1589 148.986 27.9782 149.065 27.7628L150.746 27.9517C150.64 28.3958 150.437 28.7836 150.139 29.1151C149.844 29.4432 149.466 29.6984 149.006 29.8807C148.545 30.0597 148.018 30.1491 147.425 30.1491ZM157.891 30L155.734 22.3636H157.568L158.911 27.733H158.98L160.352 22.3636H162.167L163.539 27.7031H163.614L164.936 22.3636H166.776L164.613 30H162.739L161.307 24.8395H161.202L159.771 30H157.891ZM168.282 30V22.3636H170.082V30H168.282ZM169.187 21.2798C168.902 21.2798 168.657 21.1854 168.451 20.9964C168.246 20.8042 168.143 20.5739 168.143 20.3054C168.143 20.0336 168.246 19.8033 168.451 19.6143C168.657 19.4221 168.902 19.326 169.187 19.326C169.475 19.326 169.721 19.4221 169.923 19.6143C170.128 19.8033 170.231 20.0336 170.231 20.3054C170.231 20.5739 170.128 20.8042 169.923 20.9964C169.721 21.1854 169.475 21.2798 169.187 21.2798ZM175.996 22.3636V23.7557H171.606V22.3636H175.996ZM172.69 20.5341H174.489V27.7031C174.489 27.9451 174.526 28.1307 174.599 28.2599C174.675 28.3859 174.774 28.4721 174.897 28.5185C175.02 28.5649 175.156 28.5881 175.305 28.5881C175.417 28.5881 175.52 28.5798 175.613 28.5632C175.709 28.5466 175.782 28.5317 175.832 28.5185L176.135 29.9254C176.039 29.9586 175.901 29.995 175.722 30.0348C175.547 30.0746 175.331 30.0978 175.076 30.1044C174.625 30.1177 174.219 30.0497 173.858 29.9006C173.497 29.7481 173.21 29.5128 172.998 29.1946C172.789 28.8764 172.686 28.4787 172.69 28.0014V20.5341ZM179.715 25.5256V30H177.915V19.8182H179.675V23.6612H179.764C179.943 23.2304 180.22 22.8906 180.595 22.642C180.972 22.3902 181.453 22.2642 182.036 22.2642C182.567 22.2642 183.029 22.3752 183.423 22.5973C183.818 22.8194 184.123 23.1442 184.338 23.5717C184.557 23.9993 184.666 24.5213 184.666 25.1378V30H182.867V25.4162C182.867 24.9025 182.734 24.5031 182.469 24.218C182.207 23.9297 181.839 23.7855 181.365 23.7855C181.047 23.7855 180.762 23.8551 180.51 23.9943C180.262 24.1302 180.066 24.3274 179.923 24.5859C179.784 24.8445 179.715 25.1577 179.715 25.5256ZM197.374 23.0696C197.291 22.8011 197.177 22.5608 197.031 22.3487C196.889 22.1333 196.716 21.9493 196.514 21.7969C196.315 21.6444 196.086 21.5301 195.828 21.4538C195.569 21.3743 195.288 21.3345 194.983 21.3345C194.436 21.3345 193.949 21.4721 193.521 21.7472C193.094 22.0223 192.757 22.4266 192.512 22.9602C192.27 23.4905 192.149 24.1368 192.149 24.8991C192.149 25.6681 192.27 26.3194 192.512 26.853C192.754 27.3866 193.09 27.7926 193.521 28.071C193.952 28.3461 194.452 28.4837 195.023 28.4837C195.54 28.4837 195.987 28.3842 196.365 28.1854C196.746 27.9865 197.039 27.7048 197.245 27.3402C197.45 26.9723 197.553 26.5414 197.553 26.0476L197.971 26.1122H195.206V24.6705H199.338V25.8935C199.338 26.7652 199.152 27.5192 198.781 28.1555C198.41 28.7919 197.899 29.2824 197.25 29.6271C196.6 29.9685 195.854 30.1392 195.013 30.1392C194.075 30.1392 193.251 29.9287 192.542 29.5078C191.836 29.0836 191.284 28.482 190.886 27.7031C190.492 26.9209 190.295 25.9929 190.295 24.919C190.295 24.0971 190.411 23.3629 190.643 22.7166C190.878 22.0703 191.206 21.5218 191.627 21.071C192.048 20.617 192.542 20.2723 193.108 20.0369C193.675 19.7983 194.292 19.679 194.958 19.679C195.521 19.679 196.047 19.7618 196.534 19.9276C197.021 20.09 197.454 20.322 197.831 20.6236C198.213 20.9252 198.526 21.2831 198.771 21.6974C199.016 22.1117 199.177 22.5691 199.253 23.0696H197.374ZM204.623 30.1491C203.877 30.1491 203.231 29.9851 202.684 29.657C202.137 29.3288 201.713 28.8698 201.411 28.2798C201.113 27.6899 200.964 27.0005 200.964 26.2116C200.964 25.4228 201.113 24.7318 201.411 24.1385C201.713 23.5452 202.137 23.0845 202.684 22.7564C203.231 22.4283 203.877 22.2642 204.623 22.2642C205.369 22.2642 206.015 22.4283 206.562 22.7564C207.109 23.0845 207.531 23.5452 207.83 24.1385C208.131 24.7318 208.282 25.4228 208.282 26.2116C208.282 27.0005 208.131 27.6899 207.83 28.2798C207.531 28.8698 207.109 29.3288 206.562 29.657C206.015 29.9851 205.369 30.1491 204.623 30.1491ZM204.633 28.7074C205.037 28.7074 205.375 28.5964 205.647 28.3743C205.919 28.1489 206.121 27.8473 206.254 27.4695C206.389 27.0916 206.457 26.6707 206.457 26.2067C206.457 25.7393 206.389 25.3168 206.254 24.9389C206.121 24.5578 205.919 24.2545 205.647 24.0291C205.375 23.8037 205.037 23.6911 204.633 23.6911C204.219 23.6911 203.874 23.8037 203.599 24.0291C203.327 24.2545 203.123 24.5578 202.987 24.9389C202.855 25.3168 202.788 25.7393 202.788 26.2067C202.788 26.6707 202.855 27.0916 202.987 27.4695C203.123 27.8473 203.327 28.1489 203.599 28.3743C203.874 28.5964 204.219 28.7074 204.633 28.7074ZM213.39 30.1491C212.645 30.1491 211.998 29.9851 211.452 29.657C210.905 29.3288 210.48 28.8698 210.179 28.2798C209.881 27.6899 209.731 27.0005 209.731 26.2116C209.731 25.4228 209.881 24.7318 210.179 24.1385C210.48 23.5452 210.905 23.0845 211.452 22.7564C211.998 22.4283 212.645 22.2642 213.39 22.2642C214.136 22.2642 214.782 22.4283 215.329 22.7564C215.876 23.0845 216.299 23.5452 216.597 24.1385C216.899 24.7318 217.05 25.4228 217.05 26.2116C217.05 27.0005 216.899 27.6899 216.597 28.2798C216.299 28.8698 215.876 29.3288 215.329 29.657C214.782 29.9851 214.136 30.1491 213.39 30.1491ZM213.4 28.7074C213.805 28.7074 214.143 28.5964 214.415 28.3743C214.686 28.1489 214.889 27.8473 215.021 27.4695C215.157 27.0916 215.225 26.6707 215.225 26.2067C215.225 25.7393 215.157 25.3168 215.021 24.9389C214.889 24.5578 214.686 24.2545 214.415 24.0291C214.143 23.8037 213.805 23.6911 213.4 23.6911C212.986 23.6911 212.641 23.8037 212.366 24.0291C212.095 24.2545 211.891 24.5578 211.755 24.9389C211.622 25.3168 211.556 25.7393 211.556 26.2067C211.556 26.6707 211.622 27.0916 211.755 27.4695C211.891 27.8473 212.095 28.1489 212.366 28.3743C212.641 28.5964 212.986 28.7074 213.4 28.7074ZM222.148 33.0227C221.502 33.0227 220.947 32.9349 220.483 32.7592C220.019 32.5869 219.646 32.3549 219.364 32.0632C219.082 31.7715 218.887 31.4484 218.777 31.0938L220.398 30.701C220.471 30.8501 220.577 30.9976 220.716 31.1435C220.855 31.2926 221.043 31.4152 221.278 31.5114C221.517 31.6108 221.817 31.6605 222.178 31.6605C222.688 31.6605 223.111 31.5362 223.446 31.2876C223.78 31.0424 223.948 30.638 223.948 30.0746V28.6278H223.858C223.766 28.8134 223.63 29.004 223.451 29.1996C223.275 29.3951 223.041 29.5592 222.75 29.6918C222.461 29.8243 222.098 29.8906 221.661 29.8906C221.074 29.8906 220.542 29.7531 220.065 29.478C219.591 29.1996 219.213 28.7853 218.931 28.2351C218.653 27.6816 218.514 26.9889 218.514 26.157C218.514 25.3184 218.653 24.6108 218.931 24.0341C219.213 23.4541 219.593 23.0149 220.07 22.7166C220.547 22.415 221.079 22.2642 221.666 22.2642C222.113 22.2642 222.481 22.3404 222.77 22.4929C223.061 22.642 223.293 22.8227 223.466 23.0348C223.638 23.2436 223.769 23.4408 223.858 23.6264H223.958V22.3636H225.733V30.1243C225.733 30.7772 225.577 31.3175 225.265 31.745C224.954 32.1726 224.528 32.4924 223.988 32.7045C223.447 32.9167 222.834 33.0227 222.148 33.0227ZM222.163 28.4787C222.544 28.4787 222.869 28.3859 223.137 28.2003C223.406 28.0147 223.61 27.7479 223.749 27.3999C223.888 27.0518 223.958 26.6342 223.958 26.147C223.958 25.6664 223.888 25.2455 223.749 24.8842C223.613 24.523 223.411 24.2429 223.142 24.044C222.877 23.8419 222.551 23.7408 222.163 23.7408C221.762 23.7408 221.427 23.8452 221.159 24.054C220.89 24.2628 220.688 24.5495 220.552 24.9141C220.416 25.2753 220.348 25.6863 220.348 26.147C220.348 26.6143 220.416 27.0237 220.552 27.375C220.691 27.723 220.895 27.9948 221.164 28.1903C221.435 28.3826 221.769 28.4787 222.163 28.4787ZM229.627 19.8182V30H227.827V19.8182H229.627ZM235.108 30.1491C234.343 30.1491 233.681 29.9901 233.124 29.6719C232.571 29.3504 232.145 28.8963 231.847 28.3097C231.548 27.7197 231.399 27.0253 231.399 26.2266C231.399 25.4411 231.548 24.7517 231.847 24.1584C232.148 23.5618 232.569 23.0978 233.11 22.7663C233.65 22.4316 234.285 22.2642 235.014 22.2642C235.484 22.2642 235.928 22.3404 236.346 22.4929C236.767 22.642 237.138 22.8741 237.46 23.1889C237.785 23.5038 238.04 23.9048 238.225 24.392C238.411 24.8759 238.504 25.4527 238.504 26.1222V26.674H232.244V25.4609H236.779C236.775 25.1162 236.701 24.8097 236.555 24.5412C236.409 24.2694 236.205 24.0556 235.943 23.8999C235.685 23.7441 235.383 23.6662 235.039 23.6662C234.671 23.6662 234.347 23.7557 234.069 23.9347C233.791 24.1103 233.574 24.3423 233.418 24.6307C233.265 24.9157 233.187 25.2289 233.184 25.5703V26.6293C233.184 27.0734 233.265 27.4545 233.428 27.7727C233.59 28.0876 233.817 28.3295 234.109 28.4986C234.401 28.6643 234.742 28.7472 235.133 28.7472C235.395 28.7472 235.632 28.7107 235.844 28.6378C236.056 28.5616 236.24 28.4505 236.396 28.3047C236.552 28.1589 236.669 27.9782 236.749 27.7628L238.429 27.9517C238.323 28.3958 238.121 28.7836 237.823 29.1151C237.528 29.4432 237.15 29.6984 236.689 29.8807C236.228 30.0597 235.701 30.1491 235.108 30.1491Z" fill="#15104D"/>
</svg>
