<svg xmlns="http://www.w3.org/2000/svg" xmlns:xlink="http://www.w3.org/1999/xlink" width="500" zoomAndPan="magnify" viewBox="0 0 375 374.999991" height="500" preserveAspectRatio="xMidYMid meet" version="1.0"><defs><clipPath id="e42d691d73"><path d="M 48.296875 48.296875 L 326.546875 48.296875 L 326.546875 326.546875 L 48.296875 326.546875 Z M 48.296875 48.296875 " clip-rule="nonzero"/></clipPath></defs><rect x="-37.5" width="450" fill="#ffffff" y="-37.499999" height="449.999989" fill-opacity="1"/><rect x="-37.5" width="450" fill="#e1e0f1" y="-37.499999" height="449.999989" fill-opacity="1"/><g clip-path="url(#e42d691d73)"><path fill="#15104d" d="M 48.035156 159.347656 C 48.035156 220.726562 97.972656 270.660156 159.347656 270.660156 C 181.894531 270.660156 202.867188 263.875 220.417969 252.304688 L 282.84375 318.421875 C 287.554688 323.414062 293.925781 326.210938 300.78125 326.316406 C 300.910156 326.316406 301.03125 326.316406 301.160156 326.316406 C 307.875 326.316406 314.179688 323.707031 318.941406 318.945312 C 323.796875 314.089844 326.414062 307.640625 326.3125 300.78125 C 326.210938 293.921875 323.410156 287.554688 318.421875 282.84375 L 252.304688 220.414062 C 263.875 202.867188 270.660156 181.894531 270.660156 159.347656 C 270.660156 97.96875 220.722656 48.035156 159.347656 48.035156 C 97.972656 48.035156 48.035156 97.96875 48.035156 159.347656 Z M 310.78125 290.941406 C 313.5625 293.566406 315.125 297.117188 315.179688 300.941406 C 315.238281 304.769531 313.777344 308.367188 311.070312 311.074219 C 308.367188 313.777344 304.59375 315.171875 300.945312 315.183594 C 297.121094 315.128906 293.566406 313.5625 290.9375 310.78125 L 229.472656 245.683594 C 235.417969 240.847656 240.847656 235.417969 245.683594 229.476562 Z M 159.347656 59.167969 C 214.585938 59.167969 259.527344 104.109375 259.527344 159.347656 C 259.527344 214.585938 214.585938 259.527344 159.347656 259.527344 C 104.105469 259.527344 59.167969 214.585938 59.167969 159.347656 C 59.167969 104.109375 104.105469 59.167969 159.347656 59.167969 Z M 159.347656 59.167969 " fill-opacity="1" fill-rule="nonzero"/></g><path fill="#15104d" d="M 110.140625 217.574219 L 208.554688 217.574219 C 217.097656 217.574219 224.046875 210.621094 224.046875 202.078125 L 224.046875 140.355469 C 224.046875 131.8125 217.097656 124.859375 208.554688 124.859375 L 191.671875 124.859375 L 191.671875 114.023438 C 191.671875 106.910156 185.882812 101.121094 178.769531 101.121094 L 139.921875 101.121094 C 132.808594 101.121094 127.019531 106.910156 127.019531 114.023438 L 127.019531 124.859375 L 110.140625 124.859375 C 101.597656 124.859375 94.648438 131.8125 94.648438 140.355469 L 94.648438 202.078125 C 94.648438 210.621094 101.597656 217.574219 110.140625 217.574219 Z M 208.554688 206.441406 L 110.140625 206.441406 C 107.734375 206.441406 105.777344 204.484375 105.777344 202.078125 L 105.777344 173.707031 C 107.171875 174.117188 108.617188 174.40625 110.140625 174.40625 L 208.554688 174.40625 C 210.078125 174.40625 211.523438 174.117188 212.914062 173.707031 L 212.914062 202.078125 C 212.914062 204.484375 210.960938 206.441406 208.554688 206.441406 Z M 138.148438 114.023438 C 138.148438 113.046875 138.945312 112.25 139.921875 112.25 L 178.769531 112.25 C 179.746094 112.25 180.542969 113.046875 180.542969 114.023438 L 180.542969 124.859375 L 138.148438 124.859375 Z M 105.777344 140.355469 C 105.777344 137.949219 107.734375 135.992188 110.140625 135.992188 L 208.554688 135.992188 C 210.960938 135.992188 212.914062 137.949219 212.914062 140.355469 L 212.914062 158.917969 C 212.914062 161.320312 210.960938 163.277344 208.554688 163.277344 L 110.140625 163.277344 C 107.734375 163.277344 105.777344 161.320312 105.777344 158.917969 Z M 105.777344 140.355469 " fill-opacity="1" fill-rule="nonzero"/></svg>