<svg width="48" height="48" viewBox="0 0 48 48" fill="none" xmlns="http://www.w3.org/2000/svg">
<path d="M27 29H32L30.5951 27.5951C30.2141 27.2141 30 26.6973 30 26.1585V23C30 20.3876 28.3304 18.1651 26 17.3414V17C26 15.8954 25.1046 15 24 15C22.8954 15 22 15.8954 22 17V17.3414C19.6696 18.1651 18 20.3876 18 23V26.1585C18 26.6973 17.7859 27.2141 17.4049 27.5951L16 29H21M27 29V30C27 31.6569 25.6569 33 24 33C22.3431 33 21 31.6569 21 30V29M27 29H21" stroke="#15104D" stroke-width="2" stroke-linecap="round" stroke-linejoin="round"/>
</svg>
